<?xml version="1.0" encoding="iso-8859-1"?>
<!-- Uploaded to: SVG Repo, www.svgrepo.com, Generator: SVG Repo Mixer Tools -->
<svg height="800px" width="800px" version="1.1" id="Layer_1" xmlns="http://www.w3.org/2000/svg" xmlns:xlink="http://www.w3.org/1999/xlink" 
	 viewBox="0 0 512 512" xml:space="preserve">
<polygon style="fill:#2E2E30;" points="255.235,512 378.603,441.826 404.078,141.541 256,227.034 107.922,141.541 133.397,439.677 
	"/>
<polygon style="fill:#3E3D43;" points="107.922,141.541 133.397,439.677 255.235,512 256,227.034 "/>
<polygon style="fill:#898890;" points="107.922,141.541 107.922,179.538 255.999,265.031 404.078,179.538 404.078,141.541 
	255.999,56.048 "/>
<polygon style="fill:#57565C;" points="107.922,141.541 107.922,179.538 255.999,265.031 256,227.034 "/>
<path style="fill:#898890;" d="M343.567,80.648l-122.6-70.784c-20.745-12.169-47.539-14.007-71.343-0.263l-16.227,9.368v122.887
	L256,212.641l122.602-70.785v-0.054C378.603,114.696,364.026,92.648,343.567,80.648z"/>
<polygon style="fill:#57565C;" points="133.397,18.97 255.999,89.754 255.999,212.641 238.483,202.527 238.485,182.305 
	168.427,141.856 150.912,151.969 133.397,141.856 "/>
<g>
	<path style="fill:#3E3D43;" d="M255.999,89.754v122.887l122.603-70.839c0-54.592-59.098-88.713-106.376-61.416L255.999,89.754z"/>
	<polygon style="fill:#3E3D43;" points="168.427,59.418 168.427,141.856 150.911,151.969 150.911,49.306 	"/>
</g>
<polygon style="fill:#2E2E30;" points="168.427,59.418 168.427,141.856 238.485,182.305 238.485,99.867 "/>
<polygon style="fill:#3E3D43;" points="256,227.034 404.078,141.541 404.078,179.538 255.999,265.031 "/>
</svg>